<svg xmlns="http://www.w3.org/2000/svg" viewBox="-312.0 -270.6 623.9 404.6" width="624" height="405">
<title>Wi-Fi router illustration</title>
<defs>
<linearGradient id="side" gradientUnits="userSpaceOnUse" x1="-174.0" y1="0" x2="174.0" y2="0"><stop offset="0" stop-color="#f1f1f3"/><stop offset="0.715" stop-color="#e3e3e7"/><stop offset="0.755" stop-color="#cfcfd5"/><stop offset="1" stop-color="#dadade"/></linearGradient>
<linearGradient id="top" gradientUnits="userSpaceOnUse" x1="-76.7" y1="-112.1" x2="76.7" y2="28.1"><stop offset="0" stop-color="#ffffff"/><stop offset="0.55" stop-color="#fbfbfc"/><stop offset="1" stop-color="#eeeef1"/></linearGradient>
<linearGradient id="antenna" x1="0" y1="0" x2="1" y2="0"><stop offset="0" stop-color="#ffffff"/><stop offset="1" stop-color="#ececef"/></linearGradient>
<linearGradient id="ring" gradientUnits="userSpaceOnUse" x1="0" y1="-101.2" x2="0" y2="101.2"><stop offset="0" stop-color="#e60012" stop-opacity="0.25"/><stop offset="0.5" stop-color="#e60012" stop-opacity="0.7"/><stop offset="1" stop-color="#e60012"/></linearGradient>
<filter id="soft" x="-20%" y="-50%" width="140%" height="200%"><feGaussianBlur stdDeviation="14"/></filter>
<filter id="tight" x="-10%" y="-30%" width="120%" height="160%"><feGaussianBlur stdDeviation="4"/></filter>
</defs>
<path d="M172.4 47.3 L166.1 50.9 L159.3 54.4 L152.1 57.7 L144.5 60.9 L136.5 63.8 L128.1 66.7 L119.3 69.3 L110.2 71.7 L100.8 74.0 L91.2 76.0 L81.3 77.9 L71.1 79.5 L60.8 80.9 L50.3 82.1 L39.7 83.0 L28.9 83.8 L18.1 84.3 L7.3 84.5 L-3.6 84.6 L-14.5 84.4 L-25.3 84.0 L-36.1 83.3 L-46.8 82.4 L-57.3 81.3 L-67.7 80.0 L-77.9 78.4 L-87.9 76.7 L-97.7 74.7 L-107.1 72.5 L-116.3 70.1 L-125.2 67.6 L-133.7 64.8 L-141.9 61.9 L-149.6 58.8 L-157.0 55.5 L-163.9 52.1 L-170.4 48.5 L-176.4 44.8 L-181.9 41.0 L-186.9 37.1 L-191.5 33.1 L-195.5 28.9 L-198.9 24.7 L-201.8 20.5 L-204.2 16.1 L-206.0 11.8 L-207.2 7.4 L-207.9 3.0 L-208.0 -1.5 L-207.5 -5.9 L-206.4 -10.3 L-204.8 -14.7 L-202.7 -19.0 L-199.9 -23.3 L-196.7 -27.5 L-192.9 -31.7 L-188.5 -35.8 L-183.7 -39.7 L-178.3 -43.6 L-172.4 -47.3 L-166.1 -50.9 L-159.3 -54.4 L-152.1 -57.7 L-144.5 -60.9 L-136.5 -63.8 L-128.1 -66.7 L-119.3 -69.3 L-110.2 -71.7 L-100.8 -74.0 L-91.2 -76.0 L-81.3 -77.9 L-71.1 -79.5 L-60.8 -80.9 L-50.3 -82.1 L-39.7 -83.0 L-28.9 -83.8 L-18.1 -84.3 L-7.3 -84.5 L3.6 -84.6 L14.5 -84.4 L25.3 -84.0 L36.1 -83.3 L46.8 -82.4 L57.3 -81.3 L67.7 -80.0 L77.9 -78.4 L87.9 -76.7 L97.7 -74.7 L107.1 -72.5 L116.3 -70.1 L125.2 -67.6 L133.7 -64.8 L141.9 -61.9 L149.6 -58.8 L157.0 -55.5 L163.9 -52.1 L170.4 -48.5 L176.4 -44.8 L181.9 -41.0 L186.9 -37.1 L191.5 -33.1 L195.5 -28.9 L198.9 -24.7 L201.8 -20.5 L204.2 -16.1 L206.0 -11.8 L207.2 -7.4 L207.9 -3.0 L208.0 1.5 L207.5 5.9 L206.4 10.3 L204.8 14.7 L202.7 19.0 L199.9 23.3 L196.7 27.5 L192.9 31.7 L188.5 35.8 L183.7 39.7 L178.3 43.6 Z" fill="none" stroke="url(#ring)" stroke-width="1.7" stroke-opacity="1.0"/>
<path d="M210.6 57.8 L202.9 62.2 L194.6 66.4 L185.8 70.5 L176.4 74.3 L166.6 78.0 L156.4 81.4 L145.7 84.6 L134.6 87.6 L123.1 90.4 L111.3 92.9 L99.2 95.1 L86.9 97.1 L74.3 98.8 L61.4 100.2 L48.5 101.4 L35.3 102.3 L22.1 102.9 L8.9 103.2 L-4.4 103.3 L-17.7 103.1 L-31.0 102.5 L-44.1 101.7 L-57.1 100.7 L-70.0 99.3 L-82.7 97.7 L-95.2 95.8 L-107.3 93.6 L-119.2 91.2 L-130.8 88.6 L-142.0 85.6 L-152.9 82.5 L-163.3 79.1 L-173.2 75.6 L-182.7 71.8 L-191.7 67.8 L-200.2 63.6 L-208.1 59.3 L-215.4 54.7 L-222.2 50.1 L-228.3 45.3 L-233.8 40.4 L-238.7 35.3 L-242.9 30.2 L-246.5 25.0 L-249.3 19.7 L-251.5 14.4 L-253.0 9.0 L-253.8 3.6 L-254.0 -1.8 L-253.4 -7.2 L-252.1 -12.6 L-250.1 -17.9 L-247.5 -23.2 L-244.2 -28.5 L-240.2 -33.6 L-235.5 -38.7 L-230.2 -43.7 L-224.3 -48.5 L-217.7 -53.2 L-210.6 -57.8 L-202.9 -62.2 L-194.6 -66.4 L-185.8 -70.5 L-176.4 -74.3 L-166.6 -78.0 L-156.4 -81.4 L-145.7 -84.6 L-134.6 -87.6 L-123.1 -90.4 L-111.3 -92.9 L-99.2 -95.1 L-86.9 -97.1 L-74.3 -98.8 L-61.4 -100.2 L-48.5 -101.4 L-35.3 -102.3 L-22.1 -102.9 L-8.9 -103.2 L4.4 -103.3 L17.7 -103.1 L31.0 -102.5 L44.1 -101.7 L57.1 -100.7 L70.0 -99.3 L82.7 -97.7 L95.2 -95.8 L107.3 -93.6 L119.2 -91.2 L130.8 -88.6 L142.0 -85.6 L152.9 -82.5 L163.3 -79.1 L173.2 -75.6 L182.7 -71.8 L191.7 -67.8 L200.2 -63.6 L208.1 -59.3 L215.4 -54.7 L222.2 -50.1 L228.3 -45.3 L233.8 -40.4 L238.7 -35.3 L242.9 -30.2 L246.5 -25.0 L249.3 -19.7 L251.5 -14.4 L253.0 -9.0 L253.8 -3.6 L254.0 1.8 L253.4 7.2 L252.1 12.6 L250.1 17.9 L247.5 23.2 L244.2 28.5 L240.2 33.6 L235.5 38.7 L230.2 43.7 L224.3 48.5 L217.7 53.2 Z" fill="none" stroke="url(#ring)" stroke-width="1.4" stroke-opacity="0.62"/>
<path d="M248.7 68.2 L239.6 73.4 L229.8 78.4 L219.4 83.2 L208.4 87.8 L196.8 92.1 L184.7 96.2 L172.1 100.0 L159.0 103.5 L145.4 106.7 L131.5 109.7 L117.2 112.3 L102.6 114.7 L87.7 116.7 L72.6 118.4 L57.2 119.8 L41.8 120.8 L26.1 121.6 L10.5 121.9 L-5.2 122.0 L-20.9 121.7 L-36.6 121.1 L-52.1 120.2 L-67.5 118.9 L-82.7 117.3 L-97.7 115.4 L-112.4 113.1 L-126.8 110.6 L-140.8 107.7 L-154.5 104.6 L-167.8 101.2 L-180.5 97.5 L-192.8 93.5 L-204.6 89.2 L-215.8 84.8 L-226.4 80.1 L-236.4 75.1 L-245.7 70.0 L-254.4 64.7 L-262.4 59.2 L-269.6 53.5 L-276.2 47.7 L-281.9 41.7 L-286.9 35.7 L-291.1 29.5 L-294.5 23.3 L-297.1 17.0 L-298.9 10.6 L-299.8 4.3 L-300.0 -2.1 L-299.3 -8.5 L-297.8 -14.9 L-295.4 -21.2 L-292.3 -27.4 L-288.4 -33.6 L-283.7 -39.7 L-278.2 -45.7 L-271.9 -51.6 L-264.9 -57.3 L-257.2 -62.8 L-248.7 -68.2 L-239.6 -73.4 L-229.8 -78.4 L-219.4 -83.2 L-208.4 -87.8 L-196.8 -92.1 L-184.7 -96.2 L-172.1 -100.0 L-159.0 -103.5 L-145.4 -106.7 L-131.5 -109.7 L-117.2 -112.3 L-102.6 -114.7 L-87.7 -116.7 L-72.6 -118.4 L-57.2 -119.8 L-41.8 -120.8 L-26.1 -121.6 L-10.5 -121.9 L5.2 -122.0 L20.9 -121.7 L36.6 -121.1 L52.1 -120.2 L67.5 -118.9 L82.7 -117.3 L97.7 -115.4 L112.4 -113.1 L126.8 -110.6 L140.8 -107.7 L154.5 -104.6 L167.8 -101.2 L180.5 -97.5 L192.8 -93.5 L204.6 -89.2 L215.8 -84.8 L226.4 -80.1 L236.4 -75.1 L245.7 -70.0 L254.4 -64.7 L262.4 -59.2 L269.6 -53.5 L276.2 -47.7 L281.9 -41.7 L286.9 -35.7 L291.1 -29.5 L294.5 -23.3 L297.1 -17.0 L298.9 -10.6 L299.8 -4.3 L300.0 2.1 L299.3 8.5 L297.8 14.9 L295.4 21.2 L292.3 27.4 L288.4 33.6 L283.7 39.7 L278.2 45.7 L271.9 51.6 L264.9 57.3 L257.2 62.8 Z" fill="none" stroke="url(#ring)" stroke-width="1.2" stroke-opacity="0.34"/>
<path d="M96.5 65.1 L93.5 66.7 L89.9 68.0 L85.8 69.1 L81.3 70.0 L76.6 70.5 L71.8 70.7 L66.9 70.6 L62.1 70.2 L57.5 69.6 L53.2 68.6 L-176.3 5.6 L-180.1 4.4 L-183.4 2.9 L-186.1 1.2 L-188.1 -0.6 L-189.4 -2.5 L-190.0 -4.5 L-189.8 -6.5 L-188.8 -8.4 L-187.1 -10.3 L-184.7 -12.0 L-96.5 -65.1 L-93.5 -66.7 L-89.9 -68.0 L-85.8 -69.1 L-81.3 -70.0 L-76.6 -70.5 L-71.8 -70.7 L-66.9 -70.6 L-62.1 -70.2 L-57.5 -69.6 L-53.2 -68.6 L176.3 -5.6 L180.1 -4.4 L183.4 -2.9 L186.1 -1.2 L188.1 0.6 L189.4 2.5 L190.0 4.5 L189.8 6.5 L188.8 8.4 L187.1 10.3 L184.7 12.0 Z" fill="#000" fill-opacity="0.16" filter="url(#soft)"/>
<path d="M90.5 60.6 L88.0 61.9 L85.0 63.1 L81.5 64.0 L77.8 64.7 L73.9 65.1 L69.9 65.3 L65.8 65.2 L61.8 64.9 L58.0 64.3 L54.4 63.5 L-165.1 3.3 L-168.3 2.2 L-171.1 1.0 L-173.3 -0.4 L-175.0 -1.9 L-176.1 -3.5 L-176.6 -5.1 L-176.4 -6.8 L-175.6 -8.4 L-174.1 -10.0 L-172.1 -11.4 L-90.5 -60.6 L-88.0 -61.9 L-85.0 -63.1 L-81.5 -64.0 L-77.8 -64.7 L-73.9 -65.1 L-69.9 -65.3 L-65.8 -65.2 L-61.8 -64.9 L-58.0 -64.3 L-54.4 -63.5 L165.1 -3.3 L168.3 -2.2 L171.1 -1.0 L173.3 0.4 L175.0 1.9 L176.1 3.5 L176.6 5.1 L176.4 6.8 L175.6 8.4 L174.1 10.0 L172.1 11.4 Z" fill="#000" fill-opacity="0.22" filter="url(#tight)"/>
<path d="M-50.8 -247.0 L-50.6 -248.9 L-50.2 -250.6 L-49.4 -252.1 L-48.4 -253.4 L-47.2 -254.5 L-42.2 -257.5 L-40.8 -258.2 L-39.2 -258.6 L-37.5 -258.6 L-35.8 -258.3 L-34.0 -257.7 L-32.4 -256.7 L-30.8 -255.5 L-29.4 -254.0 L-28.2 -252.3 L-27.2 -250.5 L-26.4 -248.5 L-26.0 -246.6 L-25.8 -244.6 L-25.8 -96.6 L-30.9 -93.6 L-50.8 -99.0 Z" fill="#d9d9de"/>
<path d="M-50.8 -99.0 L-30.9 -93.6 L-30.9 -241.6 L-31.0 -243.5 L-31.5 -245.5 L-32.2 -247.4 L-33.2 -249.3 L-34.4 -250.9 L-35.8 -252.4 L-37.4 -253.7 L-39.1 -254.6 L-40.8 -255.3 L-42.5 -255.6 L-44.2 -255.5 L-45.8 -255.2 L-47.2 -254.5 L-48.4 -253.4 L-49.4 -252.1 L-50.2 -250.6 L-50.6 -248.9 L-50.8 -247.0 Z" fill="url(#antenna)" stroke="#d4d4d8" stroke-width="0.8"/>
<path d="M9.5 -230.5 L9.6 -232.4 L10.1 -234.1 L10.8 -235.6 L11.8 -236.9 L13.0 -237.9 L18.1 -241.0 L19.5 -241.7 L21.1 -242.0 L22.7 -242.1 L24.5 -241.8 L26.2 -241.1 L27.9 -240.2 L29.4 -238.9 L30.9 -237.5 L32.1 -235.8 L33.1 -233.9 L33.8 -232.0 L34.3 -230.0 L34.4 -228.1 L34.4 -80.1 L29.4 -77.1 L9.5 -82.5 Z" fill="#d9d9de"/>
<path d="M9.5 -82.5 L29.4 -77.1 L29.4 -225.0 L29.2 -227.0 L28.8 -229.0 L28.1 -230.9 L27.1 -232.7 L25.8 -234.4 L24.4 -235.9 L22.8 -237.1 L21.2 -238.1 L19.4 -238.7 L17.7 -239.0 L16.0 -239.0 L14.5 -238.6 L13.0 -237.9 L11.8 -236.9 L10.8 -235.6 L10.1 -234.1 L9.6 -232.4 L9.5 -230.5 Z" fill="url(#antenna)" stroke="#d4d4d8" stroke-width="0.8"/>
<path d="M81.3 -210.8 L81.5 -212.7 L81.9 -214.4 L82.7 -215.9 L83.7 -217.2 L84.9 -218.2 L89.9 -221.2 L91.3 -222.0 L92.9 -222.3 L94.6 -222.4 L96.3 -222.1 L98.0 -221.4 L99.7 -220.5 L101.3 -219.2 L102.7 -217.7 L103.9 -216.1 L104.9 -214.2 L105.7 -212.3 L106.1 -210.3 L106.3 -208.4 L106.3 -60.4 L101.2 -57.3 L81.3 -62.8 Z" fill="#d9d9de"/>
<path d="M81.3 -62.8 L101.2 -57.3 L101.2 -205.3 L101.1 -207.3 L100.6 -209.2 L99.9 -211.2 L98.9 -213.0 L97.7 -214.7 L96.3 -216.2 L94.7 -217.4 L93.0 -218.4 L91.3 -219.0 L89.6 -219.3 L87.9 -219.3 L86.3 -218.9 L84.9 -218.2 L83.7 -217.2 L82.7 -215.9 L81.9 -214.4 L81.5 -212.7 L81.3 -210.8 Z" fill="url(#antenna)" stroke="#d4d4d8" stroke-width="0.8"/>
<path d="M141.6 -194.3 L141.7 -196.1 L142.2 -197.8 L142.9 -199.4 L143.9 -200.7 L145.1 -201.7 L150.2 -204.7 L151.6 -205.4 L153.2 -205.8 L154.8 -205.8 L156.6 -205.5 L158.3 -204.9 L160.0 -203.9 L161.5 -202.7 L163.0 -201.2 L164.2 -199.5 L165.2 -197.7 L165.9 -195.8 L166.4 -193.8 L166.5 -191.8 L166.5 -43.8 L161.5 -40.8 L141.6 -46.3 Z" fill="#d9d9de"/>
<path d="M141.6 -46.3 L161.5 -40.8 L161.5 -188.8 L161.3 -190.8 L160.9 -192.7 L160.1 -194.7 L159.1 -196.5 L157.9 -198.2 L156.5 -199.7 L154.9 -200.9 L153.3 -201.9 L151.5 -202.5 L149.8 -202.8 L148.1 -202.8 L146.6 -202.4 L145.1 -201.7 L143.9 -200.7 L142.9 -199.4 L142.2 -197.8 L141.7 -196.1 L141.6 -194.3 Z" fill="url(#antenna)" stroke="#d4d4d8" stroke-width="0.8"/>
<path d="M-178.5 -47.2 L-178.3 -48.8 L-177.5 -50.5 L-176.0 -52.0 L-174.0 -53.5 L-91.3 -103.4 L-88.7 -104.7 L-85.7 -105.8 L-82.3 -106.7 L-78.6 -107.4 L-74.7 -107.8 L-70.6 -108.0 L-66.5 -108.0 L-62.5 -107.6 L-58.7 -107.0 L-55.2 -106.2 L167.0 -45.3 L170.2 -44.2 L173.0 -43.0 L175.2 -41.6 L176.9 -40.1 L178.0 -38.5 L178.5 -36.9 L175.5 5.2 L175.3 6.7 L174.6 8.1 L173.3 9.5 L171.5 10.8 L88.8 60.7 L86.5 61.8 L83.9 62.8 L80.9 63.6 L77.6 64.2 L74.1 64.6 L70.5 64.8 L66.9 64.7 L63.4 64.4 L60.0 63.9 L56.8 63.2 L-165.3 2.2 L-168.2 1.3 L-170.6 0.2 L-172.6 -1.0 L-174.1 -2.3 L-175.0 -3.7 L-175.5 -5.2 Z" fill="url(#side)" stroke="#c9c9cf" stroke-width="0.8"/>
<path d="M91.3 19.3 L88.7 20.6 L85.7 21.7 L82.3 22.7 L78.6 23.3 L74.7 23.8 L70.6 24.0 L66.5 23.9 L62.5 23.6 L58.7 23.0 L55.2 22.2 L-167.0 -38.8 L-170.2 -39.8 L-173.0 -41.0 L-175.2 -42.4 L-176.9 -43.9 L-178.0 -45.5 L-178.5 -47.2 L-178.3 -48.8 L-177.5 -50.5 L-176.0 -52.0 L-174.0 -53.5 L-91.3 -103.4 L-88.7 -104.7 L-85.7 -105.8 L-82.3 -106.7 L-78.6 -107.4 L-74.7 -107.8 L-70.6 -108.0 L-66.5 -107.9 L-62.5 -107.6 L-58.7 -107.0 L-55.2 -106.2 L167.0 -45.3 L170.2 -44.2 L173.0 -43.0 L175.2 -41.6 L176.9 -40.1 L178.0 -38.5 L178.5 -36.9 L178.3 -35.2 L177.5 -33.6 L176.0 -32.0 L174.0 -30.6 Z" fill="url(#top)" stroke="#dcdce1" stroke-width="0.8"/>
<path d="M177.5 -33.6 L176.0 -32.0 L174.0 -30.6 L91.3 19.3 L88.7 20.6 L85.7 21.7 L82.3 22.7 L78.6 23.3 L74.7 23.8 L70.6 24.0 L66.5 23.9 L62.5 23.6 L58.7 23.0 L55.2 22.2 L-167.0 -38.8 L-170.2 -39.8 L-173.0 -41.0 L-175.2 -42.4 L-176.9 -43.9 L-178.0 -45.5 L-178.5 -47.2 L-178.3 -48.8 L-177.5 -50.5 L-176.0 -52.0 L-174.0 -53.5" fill="none" stroke="#ffffff" stroke-width="2" stroke-linecap="round"/>
<path d="M-51.6 -83.7 L-48.3 -82.7 L-70.6 -69.3 L-74.0 -70.2 Z" fill="#e2e2e6"/>
<path d="M-40.0 -80.5 L-36.7 -79.6 L-59.0 -66.1 L-62.4 -67.0 Z" fill="#e2e2e6"/>
<path d="M-28.4 -77.3 L-25.1 -76.4 L-47.4 -62.9 L-50.7 -63.8 Z" fill="#e2e2e6"/>
<path d="M-16.8 -74.1 L-13.5 -73.2 L-35.8 -59.7 L-39.1 -60.6 Z" fill="#e2e2e6"/>
<path d="M-5.2 -70.9 L-1.8 -70.0 L-24.2 -56.5 L-27.5 -57.4 Z" fill="#e2e2e6"/>
<path d="M6.4 -67.7 L9.8 -66.8 L-12.6 -53.3 L-15.9 -54.2 Z" fill="#e2e2e6"/>
<path d="M18.1 -64.5 L21.4 -63.6 L-1.0 -50.1 L-4.3 -51.1 Z" fill="#e2e2e6"/>
<path d="M29.7 -61.4 L33.0 -60.5 L10.6 -47.0 L7.3 -47.9 Z" fill="#e2e2e6"/>
<path d="M41.3 -58.2 L44.6 -57.3 L22.2 -43.8 L18.9 -44.7 Z" fill="#e2e2e6"/>
<path d="M52.9 -55.0 L56.2 -54.1 L33.8 -40.6 L30.5 -41.5 Z" fill="#e2e2e6"/>
<path d="M64.5 -51.8 L67.8 -50.9 L45.4 -37.4 L42.1 -38.3 Z" fill="#e2e2e6"/>
<path d="M76.1 -48.6 L79.4 -47.7 L57.0 -34.2 L53.7 -35.1 Z" fill="#e2e2e6"/>
<path d="M87.7 -45.4 L91.0 -44.5 L68.6 -31.0 L65.3 -32.0 Z" fill="#e2e2e6"/>
<path d="M99.3 -42.3 L102.6 -41.3 L80.2 -27.9 L76.9 -28.8 Z" fill="#e2e2e6"/>
<path d="M110.9 -39.1 L114.2 -38.2 L91.9 -24.7 L88.5 -25.6 Z" fill="#e2e2e6"/>
<circle cx="-153.7" cy="-15.0" r="2.3" fill="#9f9fa9"/>
<circle cx="-137.2" cy="-10.4" r="2.3" fill="#9f9fa9"/>
<circle cx="-120.6" cy="-5.9" r="2.3" fill="#9f9fa9"/>
<circle cx="-104.0" cy="-1.3" r="2.3" fill="#9f9fa9"/>
</svg>